<?xml version="1.0" standalone="no"?>
<!DOCTYPE svg PUBLIC "-//W3C//DTD SVG 20010904//EN"
 "http://www.w3.org/TR/2001/REC-SVG-20010904/DTD/svg10.dtd">
<svg version="1.0"
    xmlns="http://www.w3.org/2000/svg" width="512.000000pt" height="512.000000pt" viewBox="0 0 512.000000 512.000000" preserveAspectRatio="xMidYMid meet">

    <g transform="translate(0.000000,512.000000) scale(0.100000,-0.100000)" fill="#000000" stroke="none">
        <path d="M262 4000 c-71 -11 -155 -53 -192 -98 -17 -20 -39 -61 -50 -90 -20
-51 -20 -81 -20 -1247 0 -1166 0 -1196 20 -1247 28 -76 71 -122 148 -160 l67
-33 2310 0 c2245 0 2312 1 2365 19 73 25 148 101 175 176 20 54 20 80 20 1250
l0 1195 -33 67 c-39 79 -80 118 -159 149 l-58 24 -2270 1 c-1249 1 -2294 -2
-2323 -6z m4605 -233 c17 -17 18 -80 21 -1198 l2 -1180 -24 -24 -25 -25 -2295
2 c-2188 3 -2296 4 -2313 21 -17 17 -18 80 -21 1185 -2 876 1 1174 9 1195 7
16 22 33 33 37 12 5 1050 8 2308 7 2181 -2 2288 -3 2305 -20z"/>
        <path d="M3670 3115 l0 -555 -331 0 c-325 0 -331 0 -318 -19 12 -17 841 -1053
859 -1074 4 -4 33 25 65 65 433 539 815 1018 815 1023 0 3 -146 5 -325 5
l-325 0 0 555 0 555 -220 0 -220 0 0 -555z"/>
        <path d="M380 3615 c0 -3 0 -488 0 -1077 l0 -1073 160 -3 160 -2 0 872 c0 480
0 881 0 891 0 9 5 17 10 17 6 0 10 -8 10 -18 0 -38 64 -212 215 -582 198 -485
338 -832 417 -1028 l61 -153 125 3 124 3 329 820 c181 451 336 845 345 875 9
30 18 62 21 70 4 13 6 13 14 -1 5 -10 5 -69 -1 -150 -7 -80 -10 -434 -8 -874
l3 -740 173 -3 172 -2 0 1070 c0 588 0 1073 0 1078 0 4 -109 7 -242 7 l-242 0
-63 -155 c-34 -85 -69 -171 -78 -190 -28 -67 -327 -805 -350 -865 -12 -33 -36
-92 -53 -130 -29 -69 -104 -268 -117 -313 -11 -39 -29 -19 -58 64 -28 79 -318
819 -363 924 -12 30 -57 143 -99 250 -42 107 -96 245 -120 305 l-44 110 -251
3 c-137 1 -250 0 -250 -3z"/>
    </g>
</svg>
